PathFileType	4	(X/Y/Z)	C:\Users\WrightLab\Desktop\Jo\P4V128.trc
DataRate	CameraRate	NumFrames	NumMarkers	Units	OrigDataRate	OrigDataStartFrame	OrigNumFrames
100.00	100.00	       12	19	mm	100.00	62	       489
Frame#	Time	Headset_Front			Headset_Back			Headset_Left			Headset_Right			Left_Shoulder			Right_Shoulder			Sternum			C7			Left Elbow			Right Elbow			Left Wrist			Right Wrist			Left ASIS			Right ASIS			S2			Left Knee			Right Knee			Left Ankle			Right Ankle			
		X1	Y1	Z1	X2	Y2	Z2	X3	Y3	Z3	X4	Y4	Z4	X5	Y5	Z5	X6	Y6	Z6	X7	Y7	Z7	X8	Y8	Z8	X9	Y9	Z9	X10	Y10	Z10	X11	Y11	Z11	X12	Y12	Z12	X13	Y13	Z13	X14	Y14	Z14	X15	Y15	Z15	X16	Y16	Z16	X17	Y17	Z17	X18	Y18	Z18	X19	Y19	Z19	

62	0.610	-492.35745	1759.97144	-1132.06860	-515.93115	1420.16028	-988.00354							-596.38892	1665.38599	-944.47925	-624.93500	1498.65491	-1142.60754				-473.03009	1538.63623	-1135.66980	-200.45132	1152.90344	-990.64874	-776.87695	1152.75781	-1195.39868	-282.60541	873.63019	-873.80225	-803.23657	891.72693	-1036.94629	-351.52637	1005.52136	-987.37988	-653.39349	1004.59888	-1130.21887				-412.82693	568.72180	-847.66339	-617.27747	519.59210	-1191.92480	-420.72238	83.79359	-1037.31274				
63	0.620	-495.35080	1758.62231	-1123.28748	-516.50586	1419.61584	-979.61884							-598.58575	1664.54907	-935.23450	-628.36224	1498.06897	-1133.15674				-476.38055	1537.82336	-1127.53113	-202.48674	1151.43970	-984.50311	-781.76044	1152.37390	-1183.77625	-283.87213	871.84222	-868.39722	-807.93011	893.51892	-1023.43365	-354.73264	1005.02106	-979.00928	-656.86133	1003.10333	-1118.65479				-417.43134	569.15417	-838.77814	-619.36249	518.94226	-1187.23840	-436.61197	74.06607	-1006.04425				
64	0.630	-497.96793	1757.75769	-1114.48999	-519.80243	1418.30273	-970.13934							-600.78143	1663.67542	-926.52240	-631.74866	1497.27905	-1123.80713				-479.55670	1536.72070	-1118.53064	-204.69032	1150.03296	-978.83270	-786.95483	1152.60657	-1172.03137	-284.65326	869.33453	-862.99725	-813.65222	895.77765	-1008.49347	-358.26779	1003.17603	-969.61560	-660.27466	1002.91931	-1108.78687				-419.78625	567.90576	-831.01636	-620.89648	518.17639	-1182.13928	-452.20065	65.84252	-974.71564				
65	0.640	-500.60410	1756.39478	-1105.99609	-522.21857	1417.57642	-961.71948							-602.71564	1662.66907	-917.03046	-634.98340	1496.28894	-1113.69055				-482.64072	1535.79309	-1110.44006	-206.88544	1148.08362	-972.53900	-792.14587	1152.09497	-1160.27856	-285.23773	867.85529	-857.95313	-818.89050	897.10095	-994.14069	-361.52478	1001.98486	-963.75970	-663.23694	1001.26526	-1099.94580				-422.90833	566.52386	-824.40076	-622.45563	517.51337	-1177.16846	-469.05304	57.68510	-943.16840				
66	0.650	-503.14392	1755.01978	-1096.59839	-523.52612	1415.88318	-952.08643							-604.69055	1661.37573	-907.37793	-638.01227	1495.39941	-1104.22424				-485.64267	1534.37024	-1101.25293	-208.85823	1146.79175	-966.41632	-797.06531	1151.85864	-1148.32532	-286.04849	865.53455	-852.57263	-822.78918	897.83453	-979.17163	-364.50122	1000.07819	-955.90900	-666.59985	998.84467	-1088.79016				-427.81464	564.68982	-817.42126	-624.22174	517.06195	-1171.97449	-482.47528	51.36245	-910.49756				
67	0.660	-505.47232	1753.81409	-1087.97925	-526.88593	1414.52905	-943.38947										-641.09717	1494.02271	-1094.27588				-488.51385	1533.05273	-1092.76111	-211.08945	1144.63635	-962.79053	-801.04791	1150.92297	-1136.05579	-286.36725	863.11151	-846.23346	-827.10864	899.48688	-965.24652	-367.99011	998.08948	-947.94373	-670.49451	996.64056	-1083.25635				-430.20221	561.44861	-811.56000	-626.05823	516.40448	-1166.74683	-495.65143	46.43007	-878.18011				
68	0.670	-507.86853	1751.92004	-1078.85242	-527.89758	1413.18872	-934.28723							-608.08484	1658.86829	-888.96075	-643.73254	1493.12830	-1084.70935				-491.22159	1531.29492	-1083.44958	-213.05711	1143.32751	-955.05023	-805.43689	1150.35327	-1124.33984	-286.93414	860.60596	-839.48151	-831.42389	900.34119	-950.32190	-372.30722	994.63434	-939.00818	-675.46564	996.94299	-1072.76831				-434.30444	557.04218	-806.20941	-627.94183	514.81567	-1160.69580	-509.70728	41.55830	-845.05560				
69	0.680	-509.96173	1750.23596	-1069.63220	-531.05933	1412.05640	-925.08160							-609.57001	1657.25696	-879.83258	-646.49371	1491.48120	-1074.42859				-493.87537	1529.44165	-1074.38391	-214.38063	1140.89722	-948.74701	-809.54877	1149.28833	-1112.07568	-286.88037	858.07324	-833.59912	-834.64526	900.66211	-935.36108	-373.40720	993.51849	-927.25458	-679.13513	995.48474	-1061.38318				-437.11740	552.69360	-801.24194	-629.88751	514.59534	-1155.35303	-521.36041	39.04205	-813.39355				
70	0.690	-512.00671	1748.33252	-1060.68799	-531.57220	1409.47095	-915.03888							-610.98578	1655.53699	-869.93488	-649.06921	1489.98010	-1063.98621				-496.42587	1527.31982	-1065.29785	-216.55615	1138.87170	-941.75818	-813.38159	1148.38916	-1099.95654	-287.37936	855.53589	-828.56317	-838.43695	901.84924	-922.45538	-378.03125	989.60901	-921.94159	-683.28613	993.41028	-1052.09680				-440.13315	547.71191	-796.16718	-631.90564	514.00867	-1149.35596	-532.10394	36.42404	-781.54626				
71	0.700	-513.79132	1746.41736	-1051.66736	-534.31732	1408.03540	-905.97876							-612.31830	1653.42554	-860.25232	-651.33832	1488.58936	-1053.63208				-498.59677	1525.53711	-1055.76086	-217.80377	1136.59082	-936.24188	-817.01538	1147.08203	-1087.87207	-287.90378	853.41522	-823.17181	-842.53400	902.23322	-908.82404	-380.78314	987.76355	-909.35339	-686.33551	990.94379	-1039.60376				-444.06332	542.28253	-791.08441	-633.93427	512.32928	-1142.25635	-543.57050	35.58213	-751.82312				
72	0.710	-515.56683	1744.15686	-1042.08411	-534.97247	1406.48132	-896.41229							-613.34601	1651.73157	-850.82452	-653.67480	1486.37122	-1043.49121				-500.67682	1523.44922	-1046.91223	-219.75146	1134.39111	-929.41077	-820.41608	1146.08984	-1075.93042	-288.41904	850.11554	-817.60956	-845.35767	900.99792	-893.78888	-382.67703	985.08026	-900.16400	-689.23224	990.05762	-1029.26697				-446.53674	536.87219	-786.63617	-636.37244	511.44162	-1135.88538	-554.00641	34.81486	-722.99109				
73	0.720	-517.00537	1742.15186	-1032.74182	-537.40051	1404.20581	-886.34143							-614.29047	1649.50305	-840.72266	-655.55054	1484.93372	-1033.39136				-502.65027	1521.13464	-1037.94629	-221.11966	1132.18713	-922.89331	-823.62311	1144.35181	-1063.10181	-288.99048	847.17444	-811.34833	-848.17871	900.95776	-879.91241	-387.35812	980.75812	-890.37915	-692.46869	987.57367	-1018.23480				-450.55045	530.79877	-782.52795	-638.48389	510.68298	-1129.30481	-562.21698	36.60260	-696.02496				
